<?xml version="1.0" encoding="iso-8859-1"?>
<!-- Generator: Adobe Illustrator 19.0.0, SVG Export Plug-In . SVG Version: 6.00 Build 0)  -->
<svg version="1.1" id="Capa_1" xmlns="http://www.w3.org/2000/svg" xmlns:xlink="http://www.w3.org/1999/xlink" x="0px" y="0px"
	 viewBox="0 0 512 512" style="enable-background:new 0 0 512 512;" xml:space="preserve">
<g>
	<g>
		<path d="M256,22.5c-28.949,0-52.5,23.551-52.5,52.5s23.551,52.5,52.5,52.5c28.948,0,52.5-23.551,52.5-52.5S284.948,22.5,256,22.5z
			 M256,112.5c-20.678,0-37.5-16.822-37.5-37.5s16.822-37.5,37.5-37.5c20.678,0,37.5,16.822,37.5,37.5S276.678,112.5,256,112.5z"/>
	</g>
</g>
<g>
	<g>
		<path d="M271,75.298c-3.519,0-6.833-1.725-8.866-4.614C260.73,68.688,258.442,67.5,256,67.5c-2.441,0-4.729,1.188-6.134,3.184
			c-2.033,2.889-5.347,4.614-8.866,4.614c-4.142,0-7.5,3.358-7.5,7.5c0,4.142,3.358,7.5,7.5,7.5c5.44,0,10.674-1.725,15-4.81
			c4.326,3.085,9.56,4.81,15,4.81c4.143,0,7.5-3.358,7.5-7.5C278.5,78.656,275.143,75.298,271,75.298z"/>
	</g>
</g>
<g>
	<g>
		<path d="M504.5,217.5h-44.278l6.648-72.232c0.087-0.966,0.13-1.872,0.13-2.768c0-13.953-9.575-25.712-22.5-29.051V75
			c0-4.142-3.357-7.5-7.5-7.5s-7.5,3.358-7.5,7.5v38.449c-12.925,3.339-22.5,15.098-22.5,29.051c0,0.896,0.043,1.801,0.131,2.777
			l6.647,72.223H338.5V200c0-18.417-13.349-33.765-30.878-36.903C304.551,151.264,293.78,142.5,281,142.5h-50
			c-12.78,0-23.552,8.764-26.622,20.597C186.849,166.235,173.5,181.583,173.5,200v17.5H135v-31.29c8.729-3.096,15-11.432,15-21.21
			v-50c0-4.142-3.358-7.5-7.5-7.5h-30c-4.142,0-7.5,3.358-7.5,7.5v50c0,9.778,6.271,18.114,15,21.21v31.29H75v-31.29
			c8.729-3.096,15-11.432,15-21.21v-50c0-4.142-3.358-7.5-7.5-7.5h-30c-4.142,0-7.5,3.358-7.5,7.5v50c0,9.778,6.271,18.114,15,21.21
			v31.29H7.5c-4.142,0-7.5,3.358-7.5,7.5v45c0,4.142,3.358,7.5,7.5,7.5H15V482c0,4.142,3.358,7.5,7.5,7.5h467
			c4.143,0,7.5-3.358,7.5-7.5V277.5h7.5c4.143,0,7.5-3.358,7.5-7.5v-45C512,220.858,508.643,217.5,504.5,217.5z M437,127.5
			c8.271,0,15,6.729,15,15c0,0.439-0.022,0.9-0.068,1.402l-6.773,73.598h-16.316l-6.772-73.589C422.022,143.4,422,142.939,422,142.5
			C422,134.229,428.729,127.5,437,127.5z M308.5,178.79c8.729,3.096,15,11.432,15,21.21v17.5h-15V178.79z M263.5,157.5H281
			c6.893,0,12.5,5.607,12.5,12.5v47.5h-30V157.5z M218.5,170c0-6.893,5.607-12.5,12.5-12.5h17.5v60h-30V170z M188.5,200
			c0-9.778,6.271-18.114,15-21.21v38.71h-15V200z M120,122.5h15V165c0,4.136-3.364,7.5-7.5,7.5s-7.5-3.364-7.5-7.5V122.5z M60,122.5
			h15V165c0,4.136-3.364,7.5-7.5,7.5S60,169.136,60,165V122.5z M128.5,474.5h-15v-30h15V474.5z M83.5,342.5V335
			c0-6.893,5.607-12.5,12.5-12.5h50c6.893,0,12.5,5.607,12.5,12.5v7.5H83.5z M128.5,429.5h-15v-72h15V429.5z M263.5,474.5h-15v-30
			h15V474.5z M218.5,342.5V335c0-6.893,5.607-12.5,12.5-12.5h50c6.893,0,12.5,5.607,12.5,12.5v7.5H218.5z M263.5,429.5h-15v-72h15
			V429.5z M398.5,474.5h-15v-30h15V474.5z M353.5,342.5V335c0-6.893,5.607-12.5,12.5-12.5h50c6.893,0,12.5,5.607,12.5,12.5v7.5
			H353.5z M398.5,429.5h-15v-72h15V429.5z M482,474.5h-68.5v-30H436c4.143,0,7.5-3.358,7.5-7.5c0-4.142-3.357-7.5-7.5-7.5h-22.5v-72
			H436c4.143,0,7.5-3.358,7.5-7.5v-15c0-15.164-12.337-27.5-27.5-27.5h-50c-15.163,0-27.5,12.336-27.5,27.5v15
			c0,4.142,3.357,7.5,7.5,7.5h22.5v72H346c-4.143,0-7.5,3.358-7.5,7.5c0,4.142,3.357,7.5,7.5,7.5h22.5v30h-90v-30H301
			c4.143,0,7.5-3.358,7.5-7.5c0-4.142-3.357-7.5-7.5-7.5h-22.5v-72H301c4.143,0,7.5-3.358,7.5-7.5v-15
			c0-15.164-12.337-27.5-27.5-27.5h-50c-15.164,0-27.5,12.336-27.5,27.5v15c0,4.142,3.358,7.5,7.5,7.5h22.5v72H211
			c-4.142,0-7.5,3.358-7.5,7.5c0,4.142,3.358,7.5,7.5,7.5h22.5v30h-90v-30H166c4.142,0,7.5-3.358,7.5-7.5c0-4.142-3.358-7.5-7.5-7.5
			h-22.5v-72H166c4.142,0,7.5-3.358,7.5-7.5v-15c0-15.164-12.336-27.5-27.5-27.5H96c-15.164,0-27.5,12.336-27.5,27.5v15
			c0,4.142,3.358,7.5,7.5,7.5h22.5v72H76c-4.142,0-7.5,3.358-7.5,7.5c0,4.142,3.358,7.5,7.5,7.5h22.5v30H30v-197h452V474.5z
			 M497,262.5H15v-30h436.998c0.021,0,45.002,0,45.002,0V262.5z"/>
	</g>
</g>
<g>
</g>
<g>
</g>
<g>
</g>
<g>
</g>
<g>
</g>
<g>
</g>
<g>
</g>
<g>
</g>
<g>
</g>
<g>
</g>
<g>
</g>
<g>
</g>
<g>
</g>
<g>
</g>
<g>
</g>
</svg>
